<svg width="400" height="155" viewBox="0 0 400 155"
     xmlns="http://www.w3.org/2000/svg" role="img"
     aria-label="GitHub repo: chat-converter">
  <rect width="400" height="155" rx="10" fill="#0d1117" stroke="#2d0a6e" stroke-width="1.5"/>

  <!-- repo icon -->
  <svg x="15" y="15" width="16" height="16" viewBox="0 0 16 16" fill="#a78bfa">
    <path d="M2 2.5A2.5 2.5 0 0 1 4.5 0h8.75a.75.75 0 0 1 .75.75v12.5a.75.75
     0 0 1-.75.75h-2.5a.75.75 0 0 1 0-1.5h1.75v-2h-8a1 1 0 0 0-.714
     1.7.75.75 0 1 1-1.072 1.05A2.495 2.495 0 0 1 2 11.5Zm10.5-1h-8a1
     1 0 0 0-1 1v6.708A2.486 2.486 0 0 1 4.5 9h8Z"/>
  </svg>

  <text x="38" y="28" fill="#a78bfa" font-size="14" font-weight="600"
        font-family="'Segoe UI',sans-serif">chat-converter</text>

  <text x="15" y="68" fill="#8b949e" font-size="12"
        font-family="'Segoe UI',sans-serif" width="370">A web based tool to convert chat exports of popular messaging apps …</text>

  
    <circle cx="15" cy="131" r="6" fill="#F7DF1E"/>
    <text x="26" y="136" fill="#a9b1d6" font-size="12" font-family="'Segoe UI',sans-serif">JavaScript</text>

  <!-- stars -->
  <svg x="120" y="122" width="16" height="16" viewBox="0 0 16 16" fill="#8b949e">
    <path d="M8 .25a.75.75 0 0 1 .673.418l1.882 3.815 4.21.612a.75.75 0 0 1 .416 1.279l-3.046 2.97.719 4.192a.751.751 0 0 1-1.088.791L8 12.347l-3.766 1.98a.75.75 0 0 1-1.088-.79l.72-4.194L.872 6.374a.75.75 0 0 1 .416-1.28l4.21-.611L7.327.668A.75.75 0 0 1 8 .25Z"/>
  </svg>
  <text x="140" y="136" fill="#a9b1d6" font-size="12"
        font-family="'Segoe UI',sans-serif">0</text>

  <!-- forks -->
  <svg x="170" y="122" width="16" height="16" viewBox="0 0 16 16" fill="#8b949e">
    <path d="M5 5.372v.878c0 .414.336.75.75.75h4.5a.75.75 0 0 0 .75-.75v-.878a2.25 2.25 0 1 1 1.5 0v.878a2.25 2.25 0 0 1-2.25 2.25h-1.5v2.128a2.251 2.251 0 1 1-1.5 0V8.5h-1.5A2.25 2.25 0 0 1 3.5 6.25v-.878a2.25 2.25 0 1 1 1.5 0ZM5 3.25a.75.75 0 1 0-1.5 0 .75.75 0 0 0 1.5 0Zm6.75.75a.75.75 0 1 0 0-1.5.75.75 0 0 0 0 1.5Zm-3 8.75a.75.75 0 1 0-1.5 0 .75.75 0 0 0 1.5 0Z"/>
  </svg>
  <text x="190" y="136" fill="#a9b1d6" font-size="12"
        font-family="'Segoe UI',sans-serif">0</text>
</svg>